<svg xmlns="http://www.w3.org/2000/svg" width="35" height="35" viewBox="0 0 35 35"><g transform="translate(0)"><path d="M25.525,0H9.473A9.485,9.485,0,0,0,0,9.474V25.526A9.485,9.485,0,0,0,9.473,35H25.525A9.485,9.485,0,0,0,35,25.526V9.474A9.485,9.485,0,0,0,25.525,0Zm7.422,25.526a7.431,7.431,0,0,1-7.422,7.422H9.473a7.431,7.431,0,0,1-7.422-7.422V9.474A7.431,7.431,0,0,1,9.473,2.052H25.525a7.431,7.431,0,0,1,7.422,7.422Zm0,0" transform="translate(0.001 0)" fill="#fff"/><path d="M125.139,116a9.135,9.135,0,1,0,9.134,9.135A9.145,9.145,0,0,0,125.139,116Zm0,16.311a7.176,7.176,0,1,1,7.176-7.176A7.184,7.184,0,0,1,125.139,132.315Zm0,0" transform="translate(-107.638 -107.638)" fill="#fff"/><path d="M360.96,66.285a2.983,2.983,0,1,0,2.983,2.983A2.986,2.986,0,0,0,360.96,66.285Zm0,3.8a.819.819,0,1,1,.819-.819A.82.82,0,0,1,360.96,70.087Zm0,0" transform="translate(-334.084 -61.505)" fill="#fff"/></g></svg>