<svg xmlns="http://www.w3.org/2000/svg" width="35" height="35" viewBox="0 0 35 35"><path d="M32.476,0H2.524A2.524,2.524,0,0,0,0,2.524V32.476A2.524,2.524,0,0,0,2.524,35H32.476A2.524,2.524,0,0,0,35,32.476V2.524A2.524,2.524,0,0,0,32.476,0ZM12.415,26.455H8.153V13.633h4.262ZM10.284,11.882h-.028a2.221,2.221,0,1,1,.056-4.431,2.222,2.222,0,1,1-.028,4.431Zm17.5,14.573H23.521V19.6c0-1.724-.617-2.9-2.159-2.9a2.333,2.333,0,0,0-2.187,1.559,2.919,2.919,0,0,0-.14,1.04v7.161H14.774s.056-11.62,0-12.822h4.262v1.816a4.231,4.231,0,0,1,3.841-2.116c2.8,0,4.907,1.833,4.907,5.771Zm0,0" transform="translate(0)" fill="#fff"/></svg>