<svg xmlns="http://www.w3.org/2000/svg" viewBox="0 0 298.39 218.08">
          <title>Asset 6</title>
          <g id="Layer_2" data-name="Layer 2">
            <g id="Layer_1-2" data-name="Layer 1">
              <path d="M3.24,174.58H5.52v23.07H3.24Z" />
              <path
                d="M35.28,174.58h2.25v23.07H35.12L20.83,178.11v19.54H18.55V174.58H21l14.32,19.54Z"
              />
              <path d="M47.33,174.55H64.85v2.08H57.23v21H55v-21H47.33Z" />
              <path
                d="M74.62,174.58H90.06v2H76.89v8.25H88.68v2H76.89v8.68h13.6v2.05H74.62Z"
              />
              <path
                d="M117.05,197.65l-5-7.53c-.7,0-1.24.07-1.61.07h-6.34v7.46h-2.28V174.58h8.62a10.07,10.07,0,0,1,6.68,2,7,7,0,0,1,2.36,5.66,7.89,7.89,0,0,1-1.39,4.78,7.21,7.21,0,0,1-4,2.68l5.55,8Zm-6.59-9.5a7.64,7.64,0,0,0,5.08-1.51,5.37,5.37,0,0,0,1.78-4.34,5.16,5.16,0,0,0-1.78-4.22,7.86,7.86,0,0,0-5.08-1.45h-6.34v11.52Z"
              />
              <path d="M131.48,174.58h2.27v23.07h-2.27Z" />
              <path
                d="M162.64,176a12,12,0,0,1,4.38,4.24,11.2,11.2,0,0,1,1.61,5.88A11.35,11.35,0,0,1,167,192a12.16,12.16,0,0,1-20.86,0,11.27,11.27,0,0,1-1.62-5.9,11.12,11.12,0,0,1,1.62-5.88A12.32,12.32,0,0,1,162.64,176Zm-10.9,1.77a9.59,9.59,0,0,0-3.57,3.5,9.27,9.27,0,0,0-1.32,4.85,9.46,9.46,0,0,0,1.32,4.88,9.72,9.72,0,0,0,3.57,3.55,9.73,9.73,0,0,0,9.72,0A9.8,9.8,0,0,0,165,191a9.46,9.46,0,0,0,1.32-4.88,9.27,9.27,0,0,0-1.32-4.85,9.66,9.66,0,0,0-3.54-3.5,9.8,9.8,0,0,0-9.72,0Z"
              />
              <path
                d="M194.64,197.65l-5-7.53c-.7,0-1.24.07-1.61.07H181.7v7.46h-2.28V174.58H188a10.05,10.05,0,0,1,6.68,2,7,7,0,0,1,2.36,5.66,7.89,7.89,0,0,1-1.39,4.78,7.21,7.21,0,0,1-4,2.68l5.55,8Zm-6.6-9.5a7.63,7.63,0,0,0,5.08-1.51,5.34,5.34,0,0,0,1.78-4.34,5.13,5.13,0,0,0-1.78-4.22,7.84,7.84,0,0,0-5.08-1.45H181.7v11.52Z"
              />
              <path
                d="M218.76,177a11.94,11.94,0,0,0-3.17-.47,6.85,6.85,0,0,0-3.81.94,2.9,2.9,0,0,0-1.44,2.55,3.33,3.33,0,0,0,.8,2.31,5.52,5.52,0,0,0,1.94,1.41,31.68,31.68,0,0,0,3.17,1.14,27.49,27.49,0,0,1,3.78,1.36,6.74,6.74,0,0,1,2.44,2,5.92,5.92,0,0,1,0,6.66,6.67,6.67,0,0,1-2.92,2.2,11.25,11.25,0,0,1-4.32.77,12.08,12.08,0,0,1-4.71-.95,12.78,12.78,0,0,1-3.94-2.54l1.06-1.88a11.34,11.34,0,0,0,3.59,2.37,10.44,10.44,0,0,0,4,.86,7.28,7.28,0,0,0,4.19-1.07,3.36,3.36,0,0,0,1.55-2.89,3.53,3.53,0,0,0-.79-2.38,5.34,5.34,0,0,0-2-1.42c-.77-.33-1.85-.71-3.23-1.15a33.84,33.84,0,0,1-3.76-1.37,6.38,6.38,0,0,1-2.41-1.91,5.27,5.27,0,0,1-1-3.32,5,5,0,0,1,1-3.07,6.22,6.22,0,0,1,2.77-2,11.15,11.15,0,0,1,4.12-.71,13.37,13.37,0,0,1,3.78.56,13.18,13.18,0,0,1,3.35,1.49l-1,1.94A12,12,0,0,0,218.76,177Z"
              />
              <path
                d="M138.91,15.72h22.71v1.46q-11.51.59-11.51,12a52.89,52.89,0,0,0,.58,6.74l15.13,109q1.37,8.15,3.08,10.42c1.13,1.52,3.5,2.44,7.08,2.76v1.46H143.65V158.1q6.47.19,6.47-6.21a53,53,0,0,0-.59-5.72L134.77,40.52l-51.57,119h-1L30.37,40.72,15.78,147a35.09,35.09,0,0,0-.39,5.52q0,5.63,6.58,5.62v1.46H0V158.1q5,0,6.4-1.22A8,8,0,0,0,8.59,153a38.18,38.18,0,0,0,1.18-6L26.22,30.76q-4-9.68-8-11.62a17.6,17.6,0,0,0-7.74-2V15.72H37.58L88.16,133.37Z"
              />
              <path
                d="M228.76,154.19a6.65,6.65,0,0,1,.66,1.79,7.34,7.34,0,0,1,.22,1.49q0,2.58-6.35,2.58-5.86,0-8.89-3.71a26.94,26.94,0,0,1-6.17,2.64,27.88,27.88,0,0,1-7.94,1.07,23.31,23.31,0,0,1-9.15-1.85,17,17,0,0,1-7.33-5.91,17.37,17.37,0,0,1-2.9-10.35,17.9,17.9,0,0,1,1.59-7.72,15.33,15.33,0,0,1,4.1-5.44,13.89,13.89,0,0,1,5.29-2.81v-.39a14.22,14.22,0,0,1-6.44-4.81,12.75,12.75,0,0,1-2.54-7.93,13.93,13.93,0,0,1,2.25-8,13.56,13.56,0,0,1,6.2-4.93,23.57,23.57,0,0,1,9.08-1.63,19,19,0,0,1,5.1.63c1.52.42,2.27,1.16,2.27,2.2a8.26,8.26,0,0,1-.22,1.39,9.09,9.09,0,0,1-.63,2c-.28.61-.63.91-1.05.91-.07,0-.43-.07-1.08-.2a16.72,16.72,0,0,0-4.2-.63q-6,0-8.2,2.83a10.13,10.13,0,0,0-2.2,6.35,10.58,10.58,0,0,0,1.23,4.81,10.21,10.21,0,0,0,3.83,4,12.06,12.06,0,0,0,6.52,1.63h10.25l1.07-9.18c.1-1.26,1-1.9,2.74-1.9h.93a3.13,3.13,0,0,1,1.93.51,1.68,1.68,0,0,1,.65,1.39v9.18h7.28a1.46,1.46,0,0,1,1.32.61,3.83,3.83,0,0,1,.39,2v1.08a3.8,3.8,0,0,1-.39,2,1.43,1.43,0,0,1-1.32.63h-7.28v17c0,2.37.43,4,1.27,5a4.38,4.38,0,0,0,3.42,1.41,12.7,12.7,0,0,0,2.52-.19,7.5,7.5,0,0,1,1.19-.2C228.14,153.41,228.47,153.67,228.76,154.19Zm-38.35-5.27a10.4,10.4,0,0,0,4.76,3.78,15.73,15.73,0,0,0,5.81,1.1,19.4,19.4,0,0,0,5.78-.9,33.05,33.05,0,0,0,5.45-2.22,22.11,22.11,0,0,1-.15-2.59V130.41h-10.6q-6.28,0-9.64,2.57t-3.34,8.86A11.85,11.85,0,0,0,190.41,148.92Z"
              />
              <path
                d="M281,130.19a248.32,248.32,0,0,1-1.52,29.14,76.48,76.48,0,0,1-6.23,22.91,62.58,62.58,0,0,1-13.75,18.92q-9,8.68-24.09,16.92a6.87,6.87,0,0,1-2.58-2.58,13.72,13.72,0,0,1-1.41-3.53,94.82,94.82,0,0,0,15-15.74,60,60,0,0,0,9.28-19q3.18-10.81,3.17-25.62v-121q0-8-1.41-12.22a10.27,10.27,0,0,0-4.93-6.11Q249,10.35,242.7,10.1a16.81,16.81,0,0,1-.94-4.46q-.24-2.58-.24-5.64c2.35.16,5.06.28,8.11.35l9.87.24c3.53.08,7,.12,10.46.12q7.76,0,16-.24T298.39,0c0,2-.08,3.92-.23,5.64a17.21,17.21,0,0,1-.94,4.46,22.91,22.91,0,0,0-9.52,2.12,10.63,10.63,0,0,0-5.17,6.11Q281,22.56,281,30.55Z"
              />
            </g>
          </g>
        </svg>