<svg xmlns="http://www.w3.org/2000/svg" width="45.377" height="35" viewBox="0 0 45.377 35"><path d="M45.377,52.143a20.211,20.211,0,0,1-5.36,1.395,8.88,8.88,0,0,0,4.092-4.881,19.2,19.2,0,0,1-5.9,2.138A9.561,9.561,0,0,0,31.415,48a9.073,9.073,0,0,0-9.3,8.833,8.65,8.65,0,0,0,.216,2.014A26.82,26.82,0,0,1,3.159,49.61a8.55,8.55,0,0,0-1.273,4.464,8.736,8.736,0,0,0,4.132,7.339,9.566,9.566,0,0,1-4.2-1.088v.1A9,9,0,0,0,9.268,69.1a9.754,9.754,0,0,1-2.439.291,8.652,8.652,0,0,1-1.761-.151,9.342,9.342,0,0,0,8.693,6.152A19.336,19.336,0,0,1,2.226,79.158,18.346,18.346,0,0,1,0,79.037,27.215,27.215,0,0,0,14.271,83C31.39,83,40.749,69.538,40.749,57.87c0-.39-.014-.767-.034-1.142A18.069,18.069,0,0,0,45.377,52.143Z" transform="translate(0 -48)" fill="#fff"/></svg>